<?xml version="1.0" encoding="UTF-8"?>
<svg id="Capa_1" data-name="Capa 1" xmlns="http://www.w3.org/2000/svg" xmlns:xlink="http://www.w3.org/1999/xlink" viewBox="0 0 40 40">
  <defs>
    <style>
      .cls-1 {
        fill: url(#Degradado_sin_nombre_11);
        fill-rule: evenodd;
        isolation: isolate;
        opacity: .15;
      }

      .cls-2 {
        fill: url(#Degradado_sin_nombre_17);
      }

      .cls-3 {
        fill: url(#Degradado_sin_nombre_31);
      }
    </style>
    <linearGradient id="Degradado_sin_nombre_11" data-name="Degradado sin nombre 11" x1="1.97" y1="41.73" x2="36.51" y2="3.6" gradientTransform="translate(0 42) scale(1 -1)" gradientUnits="userSpaceOnUse">
      <stop offset=".26" stop-color="#6e92ff"/>
      <stop offset="1" stop-color="#5ea3ff"/>
    </linearGradient>
    <linearGradient id="Degradado_sin_nombre_31" data-name="Degradado sin nombre 31" x1="28.55" y1="13.74" x2="35.13" y2="6.5" gradientTransform="translate(0 42) scale(1 -1)" gradientUnits="userSpaceOnUse">
      <stop offset=".26" stop-color="#5ea3ff"/>
      <stop offset="1" stop-color="#6e92ff"/>
    </linearGradient>
    <linearGradient id="Degradado_sin_nombre_17" data-name="Degradado sin nombre 17" x1="1.97" y1="41.73" x2="36.51" y2="3.6" gradientTransform="translate(0 42) scale(1 -1)" gradientUnits="userSpaceOnUse">
      <stop offset=".26" stop-color="#5ea3ff"/>
      <stop offset="1" stop-color="#6e92ff"/>
    </linearGradient>
  </defs>
  <path class="cls-1" d="M39.64,18.81c-.22-.09-.47-.04-.64.13l-1.76,1.76v-11.99c0-.33-.26-.59-.59-.59h-4.51l1.64-1.64h0s1.58-1.58,1.58-1.58c.34-.34.52-.79.52-1.27s-.19-.93-.52-1.27l-1.82-1.83c-.34-.34-.79-.53-1.27-.53s-.93.19-1.27.53l-1.58,1.58-1.91,1.91-4.09,4.1H5.2V2.3c0-.33-.26-.59-.59-.59-2.55,0-4.62,2.08-4.62,4.63v25.02s0,.09.01.13c.08,1.08.55,2.09,1.33,2.86.84.82,1.94,1.27,3.1,1.27h17.94l-3.38,3.39c-.17.17-.22.42-.13.64.09.22.31.36.54.36h19.99c.32,0,.59-.26.59-.59v-20.05c0-.24-.14-.45-.36-.54ZM31.83,1.36c.24-.24.63-.24.87,0l1.82,1.83c.24.24.24.63,0,.87l-1.16,1.17-2.7-2.7,1.16-1.17ZM29.84,3.36l2.7,2.7-1.08,1.08-2.7-2.7,1.08-1.08ZM17.4,20.76l-1.68.6-1.12-1.12.59-1.69,2.21,2.22ZM34.83,29.17l-5.66,5.66c-.06.06-.02.17.07.17h5.76v-5.76c0-.09-.11-.13-.17-.07ZM15,17.5l3.5,3.5,13-13-3.5-3.5-13,13Z"/>
  <path class="cls-3" d="M35.4,28.25c-.22-.09-.47-.04-.64.13l-6.42,6.44c-.17.17-.22.42-.13.64.09.22.31.36.54.36h6.42c.32,0,.59-.26.59-.59v-6.44c0-.24-.14-.45-.36-.54ZM30.18,34.65l4.41-4.43v4.43h-4.41Z"/>
  <path class="cls-2" d="M39.64,18.81c-.22-.09-.47-.04-.64.13l-1.76,1.76v-11.99c0-.33-.26-.59-.59-.59h-4.51l1.64-1.64s0,0,0,0l1.58-1.58c.34-.34.52-.79.52-1.27s-.19-.93-.52-1.27l-1.82-1.83c-.34-.34-.79-.53-1.27-.53s-.93.19-1.27.53l-1.58,1.58-1.91,1.91-4.09,4.1H5.2V2.3c0-.33-.26-.59-.59-.59-2.55,0-4.62,2.08-4.62,4.63v25.02s0,.09.01.13c.08,1.08.55,2.09,1.33,2.86.84.82,1.94,1.27,3.1,1.27h17.94l-3.38,3.39c-.17.17-.22.42-.13.64.09.22.31.36.54.36h19.99c.32,0,.59-.26.59-.59v-20.05c0-.24-.14-.45-.36-.54ZM31.83,1.36c.24-.24.63-.24.87,0l1.82,1.83c.24.24.24.63,0,.87l-1.16,1.17-2.7-2.7,1.16-1.17ZM29.84,3.36l2.7,2.7-1.08,1.08-2.7-2.7,1.08-1.08ZM38.83,25.98h-1.08c-.32,0-.59.26-.59.59s.26.59.59.59h1.08v1.77h-1.08c-.32,0-.59.26-.59.59s.26.59.59.59h1.08v1.77h-1.08c-.32,0-.59.26-.59.59s.26.59.59.59h1.08v1.77h-1.08c-.32,0-.59.26-.59.59s.26.59.59.59h1.08v2.81h-17.98l5.93-5.95c.23-.23.23-.6,0-.83-.03-.03-.05-.05-.08-.07-.23-.16-.54-.13-.75.07l-2.38,2.39H4.45c-1.78,0-3.21-1.39-3.27-3.18,0-.11.01-.22.03-.33,0,0,0,0,0,0,0-.05.01-.1.02-.16,0,0,0-.01,0-.02,0-.05.02-.09.03-.14,0-.01,0-.03,0-.04,0-.04.02-.08.03-.12,0-.02.01-.04.02-.06,0-.03.02-.06.03-.09,0-.03.02-.06.03-.09,0-.02.01-.04.02-.06.01-.04.03-.08.05-.11,0-.01,0-.02.01-.03.02-.05.04-.09.06-.14,0,0,0,0,0,0,.46-.95,1.34-1.66,2.4-1.88,0,0,0,0,0,0,.05,0,.1-.02.15-.03,0,0,.02,0,.02,0,.04,0,.09-.01.13-.02.01,0,.03,0,.04,0,.04,0,.09,0,.13-.01.01,0,.03,0,.04,0,.06,0,.12,0,.17,0,.32,0,.59-.26.59-.59v-4.27c0-.33-.26-.59-.59-.59s-.59.26-.59.59v3.72c-.99.13-1.91.57-2.64,1.28-.08.07-.15.15-.22.23V6.34c0-1.7,1.24-3.12,2.86-3.4v17.75c0,.33.26.59.59.59s.59-.26.59-.59v-11.39h17.05l-3.25,3.26c-.23.23-.23.6,0,.83.23.23.6.23.83,0l4.25-4.26s0,0,0,0l3.84-3.85,2.7,2.7-.32.32s0,0,0,0l-11.84,11.88-2.7-2.7,2.33-2.34c.23-.23.23-.6,0-.83-.23-.23-.6-.23-.83,0l-2.75,2.76s-.03.03-.04.05c0,0,0,.01-.01.02,0,.01-.02.02-.02.03,0,0,0,.01-.01.02,0,.01-.01.02-.02.03,0,0,0,.01-.01.02,0,.01-.01.02-.01.03,0,0,0,0,0,.01l-1.14,3.25-.78,2.22s-.02.06-.02.09h-1.95c-.32,0-.59.26-.59.59s.26.59.59.59h16.26c.32,0,.59-.26.59-.59s-.26-.59-.59-.59h-11.67l3.58-1.27s0,0,0,0c.01,0,.03-.01.04-.02,0,0,.01,0,.02,0,.01,0,.03-.01.04-.02,0,0,0,0,.01,0,.01,0,.03-.02.04-.03,0,0,0,0,.01,0,.02-.01.03-.03.05-.04l12.08-12.12h5.1v12.58l-8.4,8.43c-.23.23-.23.6,0,.83.01.01.03.03.04.04.11.09.24.13.37.13s.26-.04.37-.13c.02-.01.03-.03.04-.04h0s10.33-10.36,10.33-10.36v5.2ZM17.4,20.76l-1.68.6-1.12-1.12.59-1.69,2.21,2.22Z"/>
</svg>