<?xml version="1.0" encoding="UTF-8"?>
<svg id="Capa_1" data-name="Capa 1" xmlns="http://www.w3.org/2000/svg" xmlns:xlink="http://www.w3.org/1999/xlink" viewBox="0 0 29.93 29.93">
  <defs>
    <style>
      .cls-1 {
        fill: url(#Degradado_sin_nombre_4);
      }

      .cls-1, .cls-2, .cls-3 {
        isolation: isolate;
        opacity: .15;
      }

      .cls-2 {
        fill: url(#Degradado_sin_nombre_4-2);
      }

      .cls-3 {
        fill: url(#Degradado_sin_nombre_4-3);
      }

      .cls-4 {
        fill: #428dff;
      }

      .cls-5 {
        fill: url(#Degradado_sin_nombre_10);
      }

      .cls-6 {
        fill: #a4c2f7;
      }
    </style>
    <linearGradient id="Degradado_sin_nombre_4" data-name="Degradado sin nombre 4" x1="10.98" y1="18.71" x2="23.45" y2="18.71" gradientUnits="userSpaceOnUse">
      <stop offset=".26" stop-color="#6e92ff"/>
      <stop offset="1" stop-color="#5ea3ff"/>
    </linearGradient>
    <linearGradient id="Degradado_sin_nombre_4-2" data-name="Degradado sin nombre 4" x1="25.44" y1="8.98" x2="29.43" y2="8.98" xlink:href="#Degradado_sin_nombre_4"/>
    <linearGradient id="Degradado_sin_nombre_4-3" data-name="Degradado sin nombre 4" x1="1" y1="8.98" x2="26.94" y2="8.98" xlink:href="#Degradado_sin_nombre_4"/>
    <linearGradient id="Degradado_sin_nombre_10" data-name="Degradado sin nombre 10" x1="0" y1="14.97" x2="29.93" y2="14.97" gradientUnits="userSpaceOnUse">
      <stop offset=".26" stop-color="#5ea3ff"/>
      <stop offset="1" stop-color="#6e92ff"/>
    </linearGradient>
  </defs>
  <g id="Page-1">
    <g id="_034---Touch-Responsive-UI" data-name="034---Touch-Responsive-UI">
      <path id="Shape" class="cls-6" d="M15.96,11.57c1.22-.7,1.78-2.16,1.36-3.5s-1.73-2.2-3.13-2.07-2.52,1.21-2.7,2.61.65,2.72,1.97,3.19"/>
      <path id="Shape-2" data-name="Shape" class="cls-1" d="M23.45,17.21v5.31c0,.28-.06.56-.17.81l-1.66,3.71c-.11.26-.17.53-.17.81v.57c0,.55-.45,1-1,1h-5.49c-.55,0-1-.45-1-1v-.39c0-.39-.12-.78-.33-1.11l-2.32-3.48c-.22-.33-.33-.71-.33-1.11v-2.66c0-.47.16-.92.46-1.28l.78-.94,1.25-1.5v-6.73c0-.69.56-1.25,1.25-1.25s1.25.56,1.25,1.25v4.99c0-.69.56-1.25,1.25-1.25s1.25.56,1.25,1.25v1.5c0-.69.56-1.25,1.25-1.25s1.25.56,1.25,1.25v1.5c0-.69.56-1.25,1.25-1.25s1.25.56,1.25,1.25Z"/>
      <path id="Shape-3" data-name="Shape" class="cls-2" d="M29.43,2v13.97c0,.83-.67,1.5-1.5,1.5h-2.49c.83,0,1.5-.67,1.5-1.5V2c0-.83-.67-1.5-1.5-1.5h2.49c.83,0,1.5.67,1.5,1.5Z"/>
      <path id="Shape-4" data-name="Shape" class="cls-3" d="M26.94,17.46V.5H2.55C1.69.5,1,1.17,1,2v13.97c0,.83.7,1.5,1.56,1.5h24.38Z"/>
      <g>
        <path id="Shape-5" data-name="Shape" class="cls-4" d="M4,17.96c-.28,0-.5-.22-.5-.5s.22-.5.5-.5h0c.28,0,.5.22.5.5s-.22.5-.5.5Z"/>
        <path id="Shape-6" data-name="Shape" class="cls-5" d="M27.94,0H2C.89,0,0,.89,0,2v13.97c0,1.1.89,2,2,2,.28,0,.5-.22.5-.5s-.22-.5-.5-.5c-.55,0-1-.45-1-1v-1.78l1.36-1.28c.4-.38.63-.9.63-1.46v-4.94c0-.55-.23-1.08-.63-1.46l-1.36-1.28v-1.78c0-.55.45-1,1-1h23.45c.55,0,1,.45,1,1v13.97c0,.55-.45,1-1,1h-1.52c-.12-.86-.86-1.49-1.72-1.5-.26,0-.52.06-.76.18-.04-.93-.8-1.67-1.74-1.68-.26,0-.52.06-.76.18-.02-.59-.33-1.12-.84-1.43s-1.12-.33-1.65-.07v-.81c1.3-.9,1.83-2.56,1.29-4.05-.53-1.49-2-2.43-3.57-2.3-1.57.13-2.86,1.3-3.15,2.85-.28,1.55.51,3.1,1.94,3.78v1.09c-1.79-.64-2.99-2.33-2.99-4.23,0-.28-.22-.5-.5-.5s-.5.22-.5.5c0,2.45,1.63,4.6,3.99,5.28v1.53l-.98,1.18h-6c-.28,0-.5.22-.5.5s.22.5.5.5h5.17l-.1.12c-.37.45-.58,1.01-.58,1.6v2.66c0,.49.15.97.42,1.38l2.32,3.48c.16.25.25.53.25.83v.39c0,.83.67,1.5,1.5,1.5h5.49c.83,0,1.5-.67,1.5-1.5v-.57c0-.21.04-.42.13-.61l1.65-3.72c.14-.32.22-.66.22-1.01v-4.57h3.99c1.1,0,2-.89,2-2V2c0-1.1-.89-2-2-2ZM1.68,5.78c.2.19.31.45.32.73v4.94c0,.28-.11.54-.32.73l-.68.64v-7.67l.68.64ZM11.97,8.98c0-1.09.7-2.05,1.73-2.38s2.16.04,2.79.93c.63.88.62,2.07-.04,2.94v-1.24c0-.96-.78-1.75-1.75-1.75s-1.75.78-1.75,1.75v1.75c-.63-.47-1-1.21-1-2h0ZM22.95,22.52c0,.21-.04.42-.13.61l-1.65,3.72c-.14.32-.22.66-.22,1.01v.57c0,.28-.22.5-.5.5h-5.49c-.28,0-.5-.22-.5-.5v-.39c0-.49-.15-.97-.42-1.38l-2.32-3.48c-.16-.25-.25-.53-.25-.83v-2.66c0-.35.12-.69.35-.96l1.15-1.38v3.11c0,.28.22.5.5.5s.5-.22.5-.5v-11.22c0-.41.34-.75.75-.75s.75.34.75.75v9.23c0,.28.22.5.5.5s.5-.22.5-.5v-4.24c0-.41.34-.75.75-.75s.75.34.75.75v4.24c0,.28.22.5.5.5s.5-.22.5-.5v-2.74c0-.41.34-.75.75-.75s.75.34.75.75v2.74c0,.28.22.5.5.5s.5-.22.5-.5v-1.25c0-.41.34-.75.75-.75s.75.34.75.75v5.31ZM28.93,15.96c0,.55-.45,1-1,1h-.78c.18-.3.28-.65.28-1V2c0-.35-.1-.7-.28-1h.78c.55,0,1,.45,1,1v13.97Z"/>
        <path id="Shape-7" data-name="Shape" class="cls-4" d="M18.96,8.98c0,.28.22.5.5.5s.5-.22.5-.5c0-3.03-2.46-5.48-5.49-5.49-.28,0-.5.22-.5.5s.22.5.5.5c2.48,0,4.49,2.01,4.49,4.49Z"/>
        <path id="Shape-8" data-name="Shape" class="cls-4" d="M4.99,3.99c.13,0,.26-.05.35-.15l.5-.5c.13-.13.18-.31.14-.49s-.18-.31-.36-.36-.36,0-.49.14l-.5.5c-.14.14-.19.36-.11.54s.26.31.46.31Z"/>
        <path id="Shape-9" data-name="Shape" class="cls-4" d="M8.33,2.64c-.19-.19-.51-.19-.71,0l-2.99,2.99c-.13.13-.18.31-.14.49s.18.31.36.36.36,0,.49-.14l2.99-2.99c.19-.19.19-.51,0-.71Z"/>
      </g>
    </g>
  </g>
</svg>