<?xml version="1.0" encoding="UTF-8"?>
<svg id="Capa_1" data-name="Capa 1" xmlns="http://www.w3.org/2000/svg" viewBox="0 0 400 400">
  <defs>
    <style>
      .cls-1 {
        fill: #141414;
      }
    </style>
  </defs>
  <g>
    <path class="cls-1" d="M64.06,186.8V62.97h38.34l28.34,69.55h3.22l27.99-69.55h39.01v123.83h-27.48v-105.69l3.9.34-32.74,80.24h-26.46l-32.91-80.24,4.25-.34v105.69h-25.45Z"/>
    <path class="cls-1" d="M192.08,186.8l40.88-123.83h44.96l42.41,123.83h-28.84l-34.27-104.5,8.82,3.56h-21.89l9.16-3.56-33.42,104.5h-27.82ZM223.13,156.1l8.48-23.08h48.51l8.66,23.08h-65.65Z"/>
    <path class="cls-1" d="M64.06,327.28v-123.83h27.6v123.83h-27.6ZM123.62,292.12v-23.89h22.04c4.26,0,7.93-.84,11.02-2.53,3.09-1.68,5.44-4.06,7.07-7.15,1.62-3.09,2.44-6.65,2.44-10.69s-.81-7.76-2.44-10.85c-1.63-3.08-3.98-5.47-7.07-7.15-3.08-1.68-6.76-2.52-11.02-2.52h-22.04v-23.89h20.7c10.43,0,19.37,1.74,26.84,5.22,7.46,3.48,13.18,8.44,17.16,14.89,3.98,6.45,5.97,14.1,5.97,22.97v2.69c0,8.75-1.99,16.35-5.97,22.8-3.98,6.45-9.71,11.41-17.16,14.89-7.46,3.48-16.4,5.22-26.84,5.22h-20.7Z"/>
    <path class="cls-1" d="M192.35,326.78l40.55-122.82h44.59l42.06,122.82h-28.6l-33.98-103.65,8.75,3.53h-21.71l9.08-3.53-33.14,103.65h-27.6ZM223.15,296.33l8.41-22.89h48.12l8.59,22.89h-65.11Z"/>
  </g>
  <g>
    <polyline class="cls-1" points="123.62 268.23 77.85 268.23 77.85 292.12 125.98 292.12"/>
    <polyline class="cls-1" points="130.47 203.45 84.71 203.45 84.71 227.34 132.83 227.34"/>
  </g>
</svg>