<?xml version="1.0" encoding="UTF-8"?>
<svg id="Capa_1" data-name="Capa 1" xmlns="http://www.w3.org/2000/svg" viewBox="0 0 400 400">
  <defs>
    <style>
      .cls-1 {
        fill: #efefef;
      }
    </style>
  </defs>
  <g>
    <path class="cls-1" d="M43.99,195.44V44.22h46.82l34.6,84.93h3.94l34.18-84.93h47.64v151.22h-33.56V66.38l4.76.41-39.98,97.99h-32.32l-40.19-97.99,5.18-.41v129.06h-31.08Z"/>
    <path class="cls-1" d="M200.33,195.44l49.93-151.22h54.9l51.79,151.22h-35.22l-41.84-127.61,10.77,4.35h-26.73l11.19-4.35-40.81,127.61h-33.98ZM238.24,157.95l10.36-28.18h59.24l10.57,28.18h-80.17Z"/>
    <path class="cls-1" d="M43.99,366.99v-151.22h33.7v151.22h-33.7ZM116.73,324.05v-29.18h26.92c5.2,0,9.69-1.03,13.45-3.08,3.77-2.06,6.65-4.96,8.64-8.73,1.98-3.77,2.98-8.12,2.98-13.05s-.99-9.48-2.98-13.25c-1.99-3.76-4.87-6.68-8.64-8.74-3.76-2.05-8.25-3.08-13.45-3.08h-26.92v-29.18h25.27c12.74,0,23.66,2.12,32.77,6.37,9.1,4.25,16.09,10.31,20.96,18.18,4.86,7.88,7.29,17.22,7.29,28.05v3.29c0,10.68-2.43,19.96-7.29,27.84-4.87,7.88-11.85,13.94-20.96,18.18-9.11,4.25-20.03,6.37-32.77,6.37h-25.27Z"/>
    <path class="cls-1" d="M200.66,366.37l49.52-149.98h54.45l51.37,149.98h-34.93l-41.5-126.57,10.68,4.31h-26.51l11.09-4.31-40.47,126.57h-33.7ZM238.27,329.19l10.27-27.95h58.76l10.48,27.95h-79.51Z"/>
  </g>
  <g>
    <polyline class="cls-1" points="116.73 294.88 60.84 294.88 60.84 324.05 119.61 324.05"/>
    <polyline class="cls-1" points="125.09 215.77 69.21 215.77 69.21 244.95 127.97 244.95"/>
  </g>
</svg>