<?xml version="1.0" encoding="utf-8"?>
<!-- Generator: Adobe Illustrator 24.1.1, SVG Export Plug-In . SVG Version: 6.00 Build 0)  -->
<svg version="1.1" id="Capa_1" xmlns="http://www.w3.org/2000/svg" xmlns:xlink="http://www.w3.org/1999/xlink" x="0px" y="0px"
	 viewBox="0 0 150 42" style="enable-background:new 0 0 150 42;" xml:space="preserve">
<style type="text/css">
	.st0{fill:#D9812B;}
	.st1{fill:#A1BAC2;}
	.st2{fill:#6CC5CF;}
</style>
<g>
	<path class="st0" d="M66.92,34.8c-0.38,0.05-0.82,0.09-1.31,0.11c-0.91,0-1.36-0.65-1.36-1.95c0-1.31,0.45-1.96,1.36-1.96
		c0.49,0.01,0.93,0.05,1.31,0.1v0.42c-0.38-0.04-0.81-0.07-1.29-0.07c-0.61,0-0.92,0.5-0.92,1.5c0,1,0.31,1.5,0.92,1.5
		c0.48-0.01,0.91-0.03,1.29-0.07V34.8z M70.56,32.69v0.53c0,1.12-0.43,1.68-1.29,1.68h-0.36c-0.86,0-1.29-0.56-1.29-1.68v-0.53
		c0-1.13,0.43-1.69,1.29-1.69h0.36C70.13,31,70.56,31.57,70.56,32.69z M68.9,31.44c-0.53,0-0.8,0.42-0.8,1.26v0.51
		c0,0.85,0.27,1.27,0.8,1.27h0.39c0.51,0,0.77-0.42,0.77-1.27v-0.51c0-0.84-0.26-1.26-0.77-1.26H68.9z M71.76,34.91v-3.78
		c0-0.08,0.04-0.13,0.13-0.13h0.5c0.08,0,0.14,0.04,0.17,0.13l1.7,3.31h0.06l-0.01-3.43h0.46l-0.01,3.78c0,0.08-0.04,0.12-0.13,0.12
		h-0.49c-0.08,0-0.15-0.06-0.2-0.17l-1.67-3.12h-0.07v3.29H71.76z M78.23,31.06v0.42l-1.11-0.01c-0.55,0-0.83,0.11-0.83,0.34v0.41
		c0.02,0.19,0.21,0.33,0.59,0.42l0.53,0.15c0.63,0.16,0.95,0.47,0.96,0.92v0.33c0,0.59-0.4,0.88-1.2,0.88l-1.29-0.05v-0.42
		l1.25,0.01c0.49,0,0.75-0.14,0.76-0.42v-0.33c0-0.19-0.2-0.35-0.6-0.46l-0.61-0.2c-0.55-0.16-0.83-0.44-0.86-0.85v-0.41
		c0-0.54,0.43-0.8,1.3-0.8L78.23,31.06z M82.16,32.69v0.53c0,1.12-0.43,1.68-1.29,1.68h-0.36c-0.86,0-1.29-0.56-1.29-1.68v-0.53
		c0-1.13,0.43-1.69,1.29-1.69h0.36C81.73,31,82.16,31.57,82.16,32.69z M80.5,31.44c-0.53,0-0.8,0.42-0.8,1.26v0.51
		c0,0.85,0.27,1.27,0.8,1.27h0.39c0.51,0,0.77-0.42,0.77-1.27v-0.51c0-0.84-0.26-1.26-0.77-1.26H80.5z M83.82,31v2.93
		c0,0.34,0.06,0.51,0.17,0.51h1.74v0.47h-1.74c-0.44,0-0.66-0.33-0.66-0.98V31H83.82z M87.13,31.01v3.91h-0.46v-3.91H87.13z
		 M88.41,34.93v-3.94h1.51c0.91,0,1.37,0.66,1.37,1.97c0,1.32-0.46,1.97-1.37,1.97H88.41z M89.92,34.47c0.59,0,0.88-0.5,0.88-1.51
		c0-1-0.29-1.5-0.88-1.5h-1.03v3.01H89.92z M94.73,34.92l-0.34-0.94h-1.66l-0.35,0.94h-0.46l1.25-3.68
		c0.05-0.16,0.14-0.23,0.25-0.23h0.26c0.12,0,0.2,0.08,0.25,0.23l1.25,3.68H94.73z M94.24,33.52l-0.63-1.86h-0.1l-0.64,1.86H94.24z
		 M96.08,34.91v-3.78c0-0.08,0.04-0.13,0.13-0.13h0.5c0.08,0,0.14,0.04,0.17,0.13l1.7,3.31h0.06l-0.01-3.43h0.46l-0.01,3.78
		c0,0.08-0.04,0.12-0.13,0.12h-0.49c-0.08,0-0.15-0.06-0.2-0.17l-1.67-3.12h-0.07v3.29H96.08z M100.33,34.93v-3.94h1.51
		c0.91,0,1.37,0.66,1.37,1.97c0,1.32-0.46,1.97-1.37,1.97H100.33z M101.84,34.47c0.59,0,0.88-0.5,0.88-1.51c0-1-0.29-1.5-0.88-1.5
		h-1.03v3.01H101.84z M107.12,32.69v0.53c0,1.12-0.43,1.68-1.29,1.68h-0.36c-0.86,0-1.29-0.56-1.29-1.68v-0.53
		c0-1.13,0.43-1.69,1.29-1.69h0.36C106.69,31,107.12,31.57,107.12,32.69z M105.46,31.44c-0.53,0-0.8,0.42-0.8,1.26v0.51
		c0,0.85,0.27,1.27,0.8,1.27h0.39c0.51,0,0.77-0.42,0.77-1.27v-0.51c0-0.84-0.26-1.26-0.77-1.26H105.46z M112.53,31v0.46h-1.16v3.45
		h-0.47v-3.45h-1.26V31H112.53z M113.93,31v2.57c0,0.59,0.28,0.88,0.85,0.88h0.11c0.59,0,0.88-0.29,0.88-0.88V31h0.47v2.57
		c0,0.89-0.45,1.33-1.34,1.33h-0.11c-0.88,0-1.32-0.44-1.32-1.33V31H113.93z M121.58,31.47h-1.9c-0.16,0-0.24,0.08-0.24,0.24v1.05
		h1.66v0.42h-1.66v1.05c0,0.16,0.08,0.23,0.24,0.23h1.89v0.42l-1.89,0.04c-0.47,0-0.7-0.23-0.7-0.69v-2.52c0-0.47,0.24-0.7,0.7-0.7
		l1.9,0.04V31.47z M122.6,34.93v-3.94h1.51c0.91,0,1.37,0.66,1.37,1.97c0,1.32-0.46,1.97-1.37,1.97H122.6z M124.11,34.47
		c0.59,0,0.88-0.5,0.88-1.51c0-1-0.29-1.5-0.88-1.5h-1.03v3.01H124.11z M127.13,31v2.57c0,0.59,0.28,0.88,0.85,0.88h0.11
		c0.59,0,0.88-0.29,0.88-0.88V31h0.47v2.57c0,0.89-0.45,1.33-1.34,1.33h-0.11c-0.88,0-1.32-0.44-1.32-1.33V31H127.13z M133.1,34.8
		c-0.38,0.05-0.82,0.09-1.31,0.11c-0.91,0-1.36-0.65-1.36-1.95c0-1.31,0.45-1.96,1.36-1.96c0.49,0.01,0.93,0.05,1.31,0.1v0.42
		c-0.38-0.04-0.81-0.07-1.29-0.07c-0.61,0-0.92,0.5-0.92,1.5c0,1,0.31,1.5,0.92,1.5c0.48-0.01,0.91-0.03,1.29-0.07V34.8z
		 M136.57,34.92l-0.34-0.94h-1.66l-0.35,0.94h-0.46l1.25-3.68c0.05-0.16,0.14-0.23,0.25-0.23h0.26c0.12,0,0.2,0.08,0.25,0.23
		l1.25,3.68H136.57z M136.08,33.52l-0.63-1.86h-0.1l-0.64,1.86H136.08z M140.32,34.8c-0.38,0.05-0.82,0.09-1.31,0.11
		c-0.91,0-1.36-0.65-1.36-1.95c0-1.31,0.45-1.96,1.36-1.96c0.49,0.01,0.93,0.05,1.31,0.1v0.42c-0.38-0.04-0.81-0.07-1.29-0.07
		c-0.61,0-0.92,0.5-0.92,1.5c0,1,0.31,1.5,0.92,1.5c0.48-0.01,0.91-0.03,1.29-0.07V34.8z M141.8,31.01v3.91h-0.46v-3.91H141.8z
		 M145.78,32.69v0.53c0,1.12-0.43,1.68-1.29,1.68h-0.36c-0.86,0-1.29-0.56-1.29-1.68v-0.53c0-1.13,0.43-1.69,1.29-1.69h0.36
		C145.35,31,145.78,31.57,145.78,32.69z M144.13,31.44c-0.53,0-0.8,0.42-0.8,1.26v0.51c0,0.85,0.27,1.27,0.8,1.27h0.39
		c0.51,0,0.77-0.42,0.77-1.27v-0.51c0-0.84-0.26-1.26-0.77-1.26H144.13z M146.98,34.91v-3.78c0-0.08,0.04-0.13,0.13-0.13h0.5
		c0.08,0,0.14,0.04,0.17,0.13l1.7,3.31h0.06l-0.01-3.43H150l-0.01,3.78c0,0.08-0.04,0.12-0.13,0.12h-0.49
		c-0.08,0-0.15-0.06-0.2-0.17l-1.67-3.12h-0.07v3.29H146.98z M144.6,30.67h-0.49l0.6-0.66h0.63L144.6,30.67z"/>
	<g>
		<g>
			<path class="st1" d="M0,4.99v-5.11h17.49v5.11l-4.53,0.87v30.31l4.53,0.87v5.08H0v-5.08l4.53-0.87V5.86L0,4.99z"/>
			<polygon class="st2" points="46.15,4.99 46.15,-0.12 38.95,-0.12 37.92,-0.12 28.66,-0.12 28.66,4.99 33.18,5.86 33.18,11.46 
				31.42,11.46 31.04,6.41 17.53,6.41 17.53,17.03 31.83,17.03 31.83,23.56 17.53,23.56 17.53,35.62 31.16,35.62 31.54,30.58 
				33.18,30.58 33.18,36.17 28.66,37.04 28.66,42.12 37.98,42.12 38.95,42.12 46.15,42.12 46.15,37.04 41.62,36.17 41.62,5.86 			
				"/>
		</g>
		<path class="st1" d="M64.29,26.35v-0.73l1-0.08l0.25-0.23v-8l-0.25-0.21l-1-0.07v-0.73h4.49v0.73l-1,0.07l-0.24,0.21v8l0.24,0.23
			l1,0.08v0.73H64.29z M70.4,26.35v-0.67l0.77-0.06l0.21-0.23v-5.18h-1.03v-0.6l2.16-0.7h0.73v0.89c0.57-0.32,1.07-0.55,1.48-0.7
			c0.42-0.15,0.78-0.22,1.08-0.22c0.68,0,1.19,0.21,1.53,0.62c0.34,0.41,0.51,1.04,0.51,1.88v4.02l0.2,0.23l0.79,0.06v0.67h-3.67
			v-0.67l0.65-0.06l0.21-0.23V21.8c0-0.56-0.11-0.97-0.32-1.23c-0.22-0.26-0.56-0.39-1.03-0.39c-0.18,0-0.39,0.02-0.63,0.07
			c-0.24,0.04-0.5,0.11-0.8,0.19v4.96l0.21,0.23l0.66,0.06v0.67H70.4z M85.71,19.22v2h-0.9l-0.15-1.13l-0.18-0.17
			c-0.17-0.08-0.33-0.14-0.5-0.18c-0.17-0.04-0.33-0.06-0.49-0.06c-0.36,0-0.64,0.08-0.84,0.24c-0.2,0.16-0.3,0.38-0.3,0.66
			c0,0.23,0.08,0.44,0.23,0.61c0.16,0.17,0.54,0.41,1.17,0.71l0.03,0.01c1.44,0.69,2.16,1.4,2.16,2.12c0,0.77-0.27,1.37-0.82,1.81
			c-0.54,0.44-1.29,0.66-2.25,0.66c-0.37,0-0.76-0.03-1.18-0.1c-0.41-0.06-0.85-0.16-1.3-0.29v-2.22h0.9l0.18,1.29l0.15,0.17
			c0.2,0.1,0.4,0.18,0.61,0.23c0.21,0.05,0.43,0.08,0.65,0.08c0.4,0,0.71-0.1,0.93-0.29c0.23-0.19,0.34-0.46,0.34-0.8
			c0-0.43-0.43-0.83-1.3-1.22c-0.29-0.13-0.52-0.24-0.68-0.32c-0.62-0.31-1.06-0.61-1.31-0.91c-0.25-0.3-0.38-0.66-0.38-1.07
			c0-0.67,0.27-1.21,0.8-1.62c0.54-0.41,1.25-0.62,2.14-0.62c0.38,0,0.76,0.03,1.14,0.09C84.96,19,85.34,19.09,85.71,19.22z
			 M88.38,20.13h-0.97v-0.57l1.11-0.63l0.78-1.56h0.95v1.86h2.22v0.9h-2.22v3.74c0,0.56,0.09,0.95,0.27,1.15
			c0.18,0.21,0.51,0.31,0.97,0.31c0.19,0,0.36-0.01,0.52-0.03c0.16-0.02,0.31-0.04,0.46-0.08v0.72c-0.43,0.16-0.84,0.27-1.23,0.36
			c-0.39,0.08-0.74,0.12-1.07,0.12c-0.26,0-0.5-0.03-0.7-0.08c-0.2-0.05-0.38-0.14-0.55-0.25c-0.2-0.13-0.34-0.3-0.42-0.49
			c-0.08-0.2-0.12-0.56-0.12-1.1V20.13z M96.04,18.9h0.73v6.49l0.22,0.23l0.84,0.06v0.67h-3.94v-0.67l0.81-0.06l0.21-0.23v-5.18
			h-0.99v-0.6L96.04,18.9z M95.87,15.48c0.33,0,0.6,0.1,0.81,0.31C96.89,16,97,16.26,97,16.58c0,0.33-0.1,0.6-0.31,0.82
			c-0.21,0.21-0.47,0.32-0.8,0.32c-0.31,0-0.57-0.11-0.78-0.32c-0.21-0.21-0.32-0.47-0.32-0.79c0-0.32,0.1-0.59,0.31-0.81
			C95.31,15.59,95.57,15.48,95.87,15.48z M99.66,20.13h-0.97v-0.57l1.11-0.63l0.78-1.56h0.95v1.86h2.22v0.9h-2.22v3.74
			c0,0.56,0.09,0.95,0.27,1.15c0.18,0.21,0.51,0.31,0.97,0.31c0.19,0,0.36-0.01,0.52-0.03c0.16-0.02,0.31-0.04,0.46-0.08v0.72
			c-0.43,0.16-0.84,0.27-1.23,0.36c-0.39,0.08-0.74,0.12-1.07,0.12c-0.26,0-0.5-0.03-0.7-0.08c-0.2-0.05-0.38-0.14-0.55-0.25
			c-0.2-0.13-0.34-0.3-0.42-0.49c-0.08-0.2-0.12-0.56-0.12-1.1V20.13z M107.24,18.86h0.72v4.65c0,0.6,0.11,1.03,0.33,1.29
			c0.22,0.26,0.59,0.39,1.1,0.39c0.17,0,0.36-0.02,0.57-0.06c0.21-0.04,0.45-0.1,0.72-0.18v-4.79h-0.97v-0.6l2.13-0.7h0.69v6.53
			l0.21,0.23l0.78,0.06v0.67h-2.84v-0.83c-0.52,0.34-0.98,0.59-1.38,0.74c-0.4,0.15-0.78,0.22-1.14,0.22
			c-0.69,0-1.21-0.21-1.55-0.63c-0.34-0.42-0.51-1.07-0.51-1.94v-3.75h-0.97v-0.6L107.24,18.86z M115.45,20.13h-0.97v-0.57
			l1.11-0.63l0.78-1.56h0.95v1.86h2.22v0.9h-2.22v3.74c0,0.56,0.09,0.95,0.27,1.15c0.18,0.21,0.51,0.31,0.97,0.31
			c0.19,0,0.36-0.01,0.52-0.03c0.16-0.02,0.31-0.04,0.46-0.08v0.72c-0.43,0.16-0.84,0.27-1.23,0.36c-0.39,0.08-0.74,0.12-1.07,0.12
			c-0.26,0-0.5-0.03-0.7-0.08c-0.2-0.05-0.39-0.14-0.55-0.25c-0.2-0.13-0.34-0.3-0.42-0.49c-0.08-0.2-0.12-0.56-0.12-1.1V20.13z
			 M124.53,18.86c1.15,0,2.07,0.35,2.75,1.04c0.68,0.7,1.02,1.64,1.02,2.83c0,1.12-0.35,2.03-1.06,2.71
			c-0.71,0.68-1.65,1.03-2.82,1.03c-1.13,0-2.04-0.35-2.73-1.04c-0.69-0.69-1.04-1.6-1.04-2.73c0-1.16,0.35-2.09,1.06-2.79
			C122.42,19.21,123.36,18.86,124.53,18.86z M124.47,19.66c-0.55,0-0.97,0.26-1.28,0.78c-0.31,0.52-0.46,1.26-0.46,2.2
			c0,0.96,0.15,1.7,0.46,2.24c0.31,0.53,0.73,0.8,1.27,0.8c0.57,0,1-0.26,1.31-0.78c0.31-0.52,0.46-1.26,0.46-2.21
			c0-0.95-0.16-1.7-0.47-2.23C125.46,19.92,125.03,19.66,124.47,19.66z"/>
		<path class="st2" d="M129.71,26.35v-0.73l0.92-0.08l0.24-0.23v-8l-0.24-0.21l-0.92-0.07v-0.73h7.57v2.35h-1.04l-0.26-1.32
			l-0.16-0.2h-3.01v3.58h1.96l0.21-0.21l0.15-1.08h0.89v3.48h-0.89l-0.15-1.08l-0.21-0.21h-1.96v3.9h3.5l0.18-0.24l0.24-1.59h1.03
			v2.69H129.71z M139.44,16.28h4.25v0.73l-0.9,0.07l-0.24,0.24v3.29h4.34v-3.29l-0.22-0.24l-0.9-0.07v-0.73H150v0.73l-0.87,0.07
			l-0.23,0.24v7.98l0.23,0.23l0.87,0.08v0.73h-4.23v-0.73l0.9-0.08l0.22-0.23v-3.78h-4.34v3.78l0.24,0.23l0.9,0.08v0.73h-4.25v-0.73
			l0.87-0.08l0.24-0.23v-7.98l-0.24-0.24l-0.87-0.07V16.28z"/>
	</g>
</g>
</svg>
